<?xml version="1.0" ?><svg viewBox="0 0 22.495 22.494" xmlns="http://www.w3.org/2000/svg"><g data-name="Layer 2" id="Layer_2"><g data-name="Layer 1" id="Layer_1-2"><path fill="#fff" d="M11.391,5h3.946a.341.341,0,0,1,0,.682H11.391A.341.341,0,0,1,11.391,5ZM6.7,5.681h2.87a.341.341,0,0,0,0-.682H6.7A.341.341,0,0,0,6.7,5.681Zm0,4.544h3.635a.341.341,0,0,0,0-.681H6.7A.341.341,0,0,0,6.7,10.225ZM3.749,6.817a1.477,1.477,0,0,1,0-2.954A1.477,1.477,0,0,1,3.749,6.817Zm0-2.272a.8.8,0,0,0,0,1.59A.8.8,0,0,0,3.749,4.545Zm0,6.817a1.477,1.477,0,0,1,0-2.954A1.477,1.477,0,0,1,3.749,11.362Zm0-2.273a.8.8,0,0,0,0,1.591A.8.8,0,0,0,3.749,9.089ZM6.7,14.771H9.884a.341.341,0,0,0,0-.682H6.7A.341.341,0,0,0,6.7,14.771ZM3.749,15.907a1.477,1.477,0,0,1,0-2.954A1.477,1.477,0,0,1,3.749,15.907Zm0-2.273a.8.8,0,0,0,0,1.591A.8.8,0,0,0,3.749,13.634Zm9.316,5H6.7a.341.341,0,0,0,0,.681h6.362A.341.341,0,0,0,13.065,18.634ZM3.749,20.452a1.478,1.478,0,0,1,0-2.955A1.478,1.478,0,0,1,3.749,20.452Zm0-2.273a.8.8,0,0,0,0,1.591A.8.8,0,0,0,3.749,18.179Zm14.2.086V20.79a1.705,1.705,0,0,1-1.7,1.7H1.7A1.706,1.706,0,0,1,0,20.79V1.7A1.707,1.707,0,0,1,1.7,0H16.246a1.706,1.706,0,0,1,1.7,1.7V6.956a5.79,5.79,0,0,1,0,11.309ZM5.794,2.272h6.362c.8-.019.52-1.086.568-1.591h-7.5C5.274,1.187,4.989,2.252,5.794,2.272Zm11.475,16.1c-8.428.373-8.432-11.9,0-11.531V1.7A1.024,1.024,0,0,0,16.246.681h-2.84V1.7a1.25,1.25,0,0,1-1.25,1.25H5.794A1.251,1.251,0,0,1,4.544,1.7V.681H1.7A1.023,1.023,0,0,0,.682,1.7V20.79A1.023,1.023,0,0,0,1.7,21.813H16.246a1.024,1.024,0,0,0,1.023-1.023Zm4.544-5.765A5.113,5.113,0,1,0,16.7,17.723,5.113,5.113,0,0,0,21.813,12.611Zm-1.466-.819-1.576,1.536.372,2.169a.344.344,0,0,1-.135.334.34.34,0,0,1-.359.025L16.7,14.832l-1.948,1.024a.341.341,0,0,1-.5-.359l.372-2.169-1.575-1.536a.34.34,0,0,1,.188-.581l2.178-.317L16.4,8.921a.354.354,0,0,1,.611,0l.974,1.973,2.178.317a.341.341,0,0,1,.189.581Zm-.97-.006L17.7,11.543a.343.343,0,0,1-.257-.186L16.7,9.842l-.748,1.515a.339.339,0,0,1-.256.186l-1.672.243,1.21,1.179a.342.342,0,0,1,.1.3l-.285,1.665a17.446,17.446,0,0,1,1.654-.826,17.445,17.445,0,0,1,1.654.826l-.286-1.665a.342.342,0,0,1,.1-.3Z" data-name="order list" id="order_list"/></g></g></svg>